<svg width="64" height="51" viewBox="0 0 64 51" fill="none" xmlns="http://www.w3.org/2000/svg">
<path d="M40.5602 23.6184C33.8693 25.8297 27.0833 27.7549 20.2018 29.299C16.4656 30.0996 12.6723 30.8998 8.87891 31.3001C8.95516 31.6242 9.05026 31.9292 9.14557 32.2532C9.46963 32.2151 9.75588 32.196 9.94651 32.1769C13.4921 31.8147 16.9996 31.2049 20.4689 30.4615C27.4076 28.9937 34.251 27.0493 40.9609 24.7428C45.9934 22.9891 50.9495 21.0448 55.7151 18.6239C56.2489 18.338 56.7823 18.0712 57.3161 17.7853C57.2398 17.5374 57.1638 17.2894 57.0875 17.0416C51.7501 19.6912 46.1645 21.7313 40.5602 23.6184Z" fill="#161616"/>
<path d="M57.2785 17.8039C56.7638 18.0898 56.2304 18.3566 55.7157 18.6425C50.9692 21.0444 45.9939 23.0077 40.9615 24.7614C39.3031 25.3333 37.6254 25.8863 35.9479 26.4201C40.275 25.3717 42.5054 26.382 43.6491 27.9261C46.6228 32.806 41.3616 36.5041 39.8176 37.3809C37.9113 38.3912 35.7381 38.9632 33.4315 38.9632C27.6938 38.9632 22.7949 35.4367 20.7553 30.4234C20.66 30.4424 20.5839 30.4611 20.4886 30.4801C17.0193 31.2045 13.5118 31.8343 9.96618 32.1965C9.77555 32.2156 9.4893 32.2347 9.16524 32.2728C9.06993 31.9678 8.99389 31.6438 8.89857 31.3197C12.711 30.9003 16.4853 30.1182 20.2215 29.3176C24.4914 28.3645 28.7231 27.2589 32.9359 26.0199C30.534 26.4583 28.6473 26.4962 27.1413 26.2674C26.9507 26.2293 26.7218 26.1729 26.474 26.1157C22.2612 25.296 21.8038 20.988 21.7656 20.4352C21.7656 20.2065 21.7656 19.9961 21.7656 19.7864C21.8609 18.3186 22.49 17.137 23.1953 16.2411C25.6925 13.4008 29.3713 11.6086 33.4506 11.6086C39.703 11.6086 44.9645 15.8027 46.6039 21.5214C50.1685 20.2061 53.676 18.7763 57.0691 17.0798C53.7141 7.14829 44.3164 0 33.2603 0C19.3829 0 8.11719 11.2466 8.11719 25.1431C8.11719 39.0204 19.3638 50.2861 33.2603 50.2861C47.1376 50.2861 58.4033 39.0395 58.4033 25.1431C58.3652 22.5697 57.9838 20.1295 57.2785 17.8039Z" fill="#161616"/>
<path d="M4.58927 31.6054C4.15084 31.6054 3.7316 31.5863 3.29317 31.5673C2.66411 31.5101 2.03511 31.4335 1.44418 31.2238C1.12012 31.1094 0.776702 30.9192 0.662328 30.6142C0.357331 29.3942 3.38816 27.3921 4.39847 26.744C5.59939 25.9624 6.83879 25.2574 8.09691 24.5902C8.09691 24.5711 8.09691 24.5329 8.09691 24.5139C5.46631 25.6957 0.910045 27.9076 0.0903661 29.9663C-0.881811 32.9973 6.24747 32.5392 9.12588 32.2914C9.03057 31.9864 8.95452 31.6624 8.85921 31.3383C7.4486 31.4717 6.01895 31.5673 4.58927 31.6054Z" fill="#161616"/>
<path d="M63.204 11.4938C62.1365 10.5788 59.6773 10.6743 58.2857 10.7315C59.3914 10.7696 63.0324 10.8463 63.223 12.2188C63.2993 13.801 59.0862 16.0115 57.6947 16.7359C57.485 16.8503 57.2756 16.9464 57.0469 17.0607C57.1231 17.3085 57.1991 17.5557 57.2754 17.8035C59.1054 16.8123 60.8976 15.7256 62.4226 14.3149C63.1279 13.6287 64.1571 12.3706 63.204 11.4938Z" fill="#161616"/>
</svg>
